<?xml version="1.0" standalone="no"?>
<!DOCTYPE svg PUBLIC "-//W3C//DTD SVG 20010904//EN"
 "http://www.w3.org/TR/2001/REC-SVG-20010904/DTD/svg10.dtd">
<svg version="1.0" xmlns="http://www.w3.org/2000/svg"
 width="1600.000000pt" height="1600.000000pt" viewBox="0 0 1600.000000 1600.000000"
 preserveAspectRatio="xMidYMid meet">

<g transform="translate(0.000000,1600.000000) scale(0.100000,-0.100000)"
fill="#000000" stroke="none">
<path d="M7795 11444 c-16 -2 -66 -9 -110 -15 -44 -6 -138 -26 -210 -44 -735
-188 -1313 -773 -1490 -1510 -48 -199 -59 -295 -59 -500 0 -200 11 -301 54
-481 107 -448 363 -853 720 -1139 215 -172 508 -319 766 -385 197 -51 309 -64
534 -64 194 0 230 3 365 28 83 15 210 48 283 72 899 294 1479 1152 1421 2103
-22 367 -141 719 -348 1027 -314 470 -798 782 -1376 889 -86 16 -475 30 -550
19z m93 -587 c2 -330 1 -358 -15 -364 -40 -15 -541 42 -645 73 -28 9 -21 34
35 130 124 209 262 357 421 449 58 34 165 75 186 72 13 -2 15 -51 18 -360z
m303 343 c130 -40 275 -148 398 -296 76 -92 201 -289 201 -317 0 -17 -28 -24
-220 -57 -132 -22 -419 -46 -444 -37 -14 6 -16 41 -16 367 0 205 4 360 9 360
5 0 37 -9 72 -20z m-992 -197 c-69 -96 -111 -163 -164 -263 -28 -53 -57 -96
-66 -98 -18 -3 -207 64 -223 79 -36 33 389 328 487 338 4 1 -11 -25 -34 -56z
m1602 45 c109 -37 480 -299 458 -322 -14 -15 -185 -79 -213 -80 -28 -1 -33 5
-86 101 -46 84 -108 181 -189 294 -16 22 -15 23 30 7z m-2143 -532 c43 -18
106 -43 142 -55 83 -27 94 -35 88 -57 -3 -11 -22 -75 -42 -144 -59 -199 -106
-485 -119 -720 l-2 -45 -289 -3 -289 -2 6 79 c15 191 81 422 178 619 77 156
214 362 241 362 5 0 44 -15 86 -34z m2837 -43 c195 -267 322 -595 350 -906 l7
-77 -288 2 -289 3 -3 40 c-18 266 -61 521 -123 737 -24 81 -40 150 -37 153 3
3 57 25 120 49 63 24 128 51 144 59 16 9 37 16 46 17 9 0 41 -33 73 -77z
m-2227 -138 c264 -49 457 -67 722 -68 265 -1 424 13 690 60 80 14 160 26 179
27 l35 1 28 -89 c37 -116 82 -319 105 -471 25 -170 25 -658 0 -832 -27 -191
-104 -511 -136 -561 -6 -10 -46 -6 -195 23 -285 54 -471 68 -781 62 -275 -6
-376 -17 -638 -67 -88 -17 -163 -27 -167 -23 -16 17 -59 163 -94 313 -96 419
-96 911 -1 1325 35 153 74 289 91 317 7 11 9 11 162 -17z m-535 -1195 c10
-178 61 -467 113 -649 24 -85 41 -158 37 -162 -5 -3 -78 -34 -162 -68 l-155
-61 -23 27 c-56 66 -167 244 -217 347 -59 122 -127 323 -150 444 -19 101 -30
217 -23 237 6 13 41 15 289 13 l283 -3 8 -125z m3114 114 c11 -28 -27 -260
-63 -383 -38 -134 -84 -248 -151 -371 -83 -154 -195 -306 -217 -296 -6 3 -76
32 -156 64 -132 53 -145 61 -144 83 0 13 17 80 38 148 46 158 92 414 107 601
6 80 12 151 15 158 2 9 68 12 284 12 249 0 281 -2 287 -16z m-1959 -1353 c1
-195 -1 -358 -6 -363 -11 -11 -86 14 -168 55 -168 85 -325 248 -463 484 -63
107 -63 108 116 138 151 26 331 43 428 42 l90 -2 3 -354z m606 334 c170 -23
288 -47 293 -62 6 -15 -81 -172 -140 -253 -59 -81 -193 -215 -265 -267 -72
-52 -204 -113 -244 -113 l-28 0 0 362 0 361 138 -7 c75 -3 186 -13 246 -21z
m-1478 -187 c44 -87 114 -201 177 -287 26 -36 45 -67 42 -69 -9 -9 -157 71
-260 140 -104 69 -235 175 -235 189 0 5 10 14 23 20 23 13 197 78 209 79 4 0
24 -32 44 -72z m2130 30 c45 -16 90 -36 100 -44 22 -16 26 -11 -102 -115 -102
-82 -297 -203 -356 -219 l-29 -9 18 27 c103 153 157 239 192 306 23 44 44 83
47 88 6 10 15 8 130 -34z"/>
<path d="M9622 5979 c-86 -26 -130 -67 -262 -243 -71 -94 -126 -174 -122 -177
6 -6 232 -29 282 -29 14 0 41 29 86 90 36 50 72 90 80 90 8 0 48 -46 90 -103
l75 -104 162 -11 c91 -6 166 -7 171 -2 10 10 -266 383 -314 423 -73 62 -174
89 -248 66z"/>
<path d="M4290 5950 c-14 -4 -20 -8 -15 -9 131 -11 559 -42 675 -50 85 -5 246
-17 357 -27 112 -9 210 -14 218 -10 12 4 15 17 13 53 l-3 48 -610 2 c-335 0
-621 -3 -635 -7z"/>
<path d="M5657 5953 c-12 -12 -8 -101 6 -110 6 -4 109 -15 227 -24 118 -10
364 -29 545 -43 182 -15 409 -33 505 -40 96 -8 179 -11 183 -7 4 4 6 57 5 117
l-3 109 -731 3 c-402 1 -734 -1 -737 -5z"/>
<path d="M7234 5947 c-2 -7 -3 -62 -2 -123 l3 -109 45 -8 c25 -5 299 -12 610
-15 l565 -7 5 -35 5 -35 112 -9 c61 -5 119 -6 127 -3 12 5 16 21 16 60 0 110
-91 233 -204 276 -56 21 -68 21 -667 21 -494 0 -611 -2 -615 -13z"/>
<path d="M10806 5940 c-98 -39 -154 -93 -193 -190 -14 -35 -18 -73 -18 -175
l0 -130 118 -8 c65 -5 124 -6 132 -3 12 4 15 29 15 131 l0 125 608 2 607 3 0
130 0 130 -610 2 c-579 2 -612 1 -659 -17z"/>
<path d="M12164 5947 c-2 -7 -3 -67 -2 -133 l3 -119 297 -3 298 -2 2 -208 3
-207 125 -10 c69 -6 128 -9 133 -7 4 2 7 100 7 217 l0 215 298 2 297 3 0 130
0 130 -728 3 c-594 2 -729 0 -733 -11z"/>
<path d="M2215 4538 c-3 -8 -4 -79 -3 -158 l3 -145 30 0 c28 0 30 3 35 40 l5
40 150 2 c83 2 160 5 172 8 54 13 73 140 29 192 l-24 28 -196 3 c-158 3 -197
1 -201 -10z m370 -108 l0 -35 -150 0 c-149 0 -150 0 -153 23 -8 51 -4 53 155
50 l148 -3 0 -35z"/>
<path d="M2814 4536 c-3 -8 -4 -25 -2 -38 3 -22 8 -23 98 -28 l95 -5 5 -115 5
-115 30 0 30 0 3 117 3 117 92 3 92 3 0 35 0 35 -223 3 c-187 2 -223 0 -228
-12z"/>
<path d="M4038 4523 c-58 -64 -209 -273 -203 -283 3 -5 24 -10 45 -10 33 0 41
5 60 35 l22 35 138 0 138 0 26 -35 c23 -29 33 -35 66 -35 21 0 41 4 44 8 6 9
-194 278 -221 300 -30 22 -87 15 -115 -15z m89 -75 c11 -13 28 -35 38 -50 l17
-28 -76 0 c-42 0 -76 4 -76 8 0 12 60 92 69 92 4 0 17 -10 28 -22z"/>
<path d="M4561 4536 c-45 -25 -62 -81 -40 -129 21 -46 44 -52 219 -57 138 -4
165 -7 165 -20 0 -13 -29 -16 -185 -20 l-185 -5 0 -35 0 -35 193 -3 193 -2 30
29 c45 46 39 123 -14 153 -14 8 -80 15 -187 18 -138 4 -165 7 -165 20 0 13 30
16 190 20 l190 5 0 35 0 35 -190 2 c-143 2 -196 -1 -214 -11z"/>
<path d="M5193 4540 c-38 -16 -53 -60 -53 -159 0 -81 2 -93 24 -118 l24 -28
204 0 203 0 0 35 0 35 -190 5 c-160 4 -190 7 -190 20 0 13 30 16 190 20 l190
5 0 35 0 35 -190 5 c-160 4 -190 7 -190 20 0 13 30 16 190 20 l190 5 0 35 0
35 -190 2 c-104 1 -200 -2 -212 -7z"/>
<path d="M5967 4538 c-27 -21 -226 -291 -221 -300 3 -4 23 -8 44 -8 33 0 43 6
66 35 l26 35 134 0 133 0 28 -35 c23 -29 35 -35 65 -35 20 0 40 4 43 10 6 9
-148 223 -203 283 -28 30 -85 37 -115 15z m92 -110 c17 -23 31 -46 31 -50 0
-4 -34 -8 -76 -8 l-76 0 17 28 c23 35 56 72 66 72 4 0 21 -19 38 -42z"/>
<path d="M6460 4523 c-19 -24 -20 -37 -18 -157 l3 -131 30 0 30 0 5 112 c3 61
8 115 12 119 4 4 63 -48 132 -115 118 -115 125 -121 165 -121 28 0 47 6 61 20
19 19 20 31 18 158 l-3 137 -30 0 -30 0 -5 -112 c-3 -61 -8 -115 -12 -119 -4
-4 -63 48 -132 115 -117 114 -126 121 -164 121 -32 0 -45 -6 -62 -27z"/>
<path d="M7354 4536 c-3 -8 -4 -25 -2 -38 3 -22 7 -23 95 -26 l92 -3 3 -117 3
-117 35 0 35 0 3 117 3 117 91 3 92 3 1 35 0 35 -223 3 c-187 2 -223 0 -228
-12z"/>
<path d="M7975 4538 c-3 -8 -4 -79 -3 -158 l3 -145 30 0 c28 0 30 3 35 40 l5
40 150 0 150 0 5 -40 c5 -37 8 -40 35 -40 30 0 30 1 28 50 -3 70 -3 73 3 141
5 55 3 64 -19 90 l-25 29 -196 3 c-158 3 -197 1 -201 -10z m370 -108 l0 -35
-150 0 c-149 0 -150 0 -153 23 -8 51 -4 53 155 50 l148 -3 0 -35z"/>
<path d="M8778 4523 c-54 -59 -208 -275 -203 -284 4 -5 23 -9 44 -9 32 0 43 6
65 35 l27 35 133 0 134 0 26 -35 c23 -29 33 -35 66 -35 21 0 41 4 44 9 6 9
-182 265 -216 294 -32 27 -89 22 -120 -10z m125 -123 l18 -30 -75 0 c-42 0
-76 3 -76 8 0 4 17 29 37 56 l36 50 21 -27 c12 -15 30 -40 39 -57z"/>
<path d="M9299 4535 c-35 -19 -49 -62 -49 -147 0 -83 19 -134 56 -148 15 -6
104 -9 213 -8 l186 3 0 35 0 35 -187 3 -188 2 0 80 0 80 188 2 187 3 0 35 0
35 -190 2 c-150 2 -196 -1 -216 -12z"/>
<path d="M9854 4536 c-3 -8 -4 -25 -2 -38 3 -22 8 -23 98 -28 l95 -5 5 -115 5
-115 30 0 30 0 3 117 3 117 92 3 92 3 0 35 0 35 -223 3 c-187 2 -223 0 -228
-12z"/>
<path d="M10514 4540 c-43 -18 -54 -48 -54 -153 0 -96 1 -99 29 -128 l29 -29
167 0 167 0 29 29 c28 29 29 32 29 130 0 91 -2 102 -24 128 l-24 28 -164 2
c-89 1 -173 -2 -184 -7z m321 -150 l0 -75 -150 0 -150 0 -3 64 c-2 35 -1 70 2
78 5 11 35 13 153 11 l148 -3 0 -75z"/>
<path d="M11095 4538 c-3 -8 -4 -79 -3 -158 l3 -145 30 0 c28 0 30 3 35 40 l5
40 150 0 150 0 5 -40 c5 -37 8 -40 35 -40 30 0 30 1 28 50 -3 70 -3 73 3 141
5 55 3 64 -19 90 l-25 29 -196 3 c-158 3 -197 1 -201 -10z m370 -108 l0 -35
-150 0 c-149 0 -150 0 -153 23 -8 51 -4 53 155 50 l148 -3 0 -35z"/>
<path d="M11715 4538 c-3 -8 -4 -79 -3 -158 l3 -145 30 0 30 0 0 155 0 155
-28 3 c-16 2 -29 -2 -32 -10z"/>
<path d="M11980 4530 c-19 -19 -20 -31 -18 -158 l3 -137 30 0 30 0 2 95 c5
160 -5 159 140 21 120 -115 128 -121 168 -121 70 0 76 14 73 176 l-3 139 -30
0 -30 0 -3 -117 c-1 -65 -6 -118 -10 -118 -4 0 -63 54 -132 120 -114 110 -127
120 -162 120 -25 0 -45 -7 -58 -20z"/>
<path d="M12594 4537 c-2 -7 -3 -78 -2 -157 l3 -145 185 -3 c208 -3 235 3 256
54 17 40 18 159 3 203 -19 55 -46 61 -254 61 -143 0 -187 -3 -191 -13z m376
-147 l0 -81 -152 3 -153 3 -3 64 c-2 35 -1 70 2 77 4 11 38 14 156 14 l150 0
0 -80z"/>
<path d="M13248 4521 l-33 -29 0 -102 0 -102 33 -29 34 -30 170 3 170 3 24 28
c22 26 24 37 24 127 0 90 -2 101 -24 127 l-24 28 -170 3 -170 3 -34 -30z m347
-131 l0 -75 -152 -3 -153 -3 0 81 0 81 153 -3 152 -3 0 -75z"/>
<path d="M3324 4296 c-3 -8 -4 -25 -2 -38 2 -18 9 -23 33 -23 28 0 30 3 30 35
0 31 -3 35 -28 38 -17 2 -29 -2 -33 -12z"/>
</g>
</svg>
