<?xml version="1.0" standalone="no"?>
<!DOCTYPE svg PUBLIC "-//W3C//DTD SVG 20010904//EN"
 "http://www.w3.org/TR/2001/REC-SVG-20010904/DTD/svg10.dtd">
<svg version="1.0" xmlns="http://www.w3.org/2000/svg"
 width="824.000000pt" height="292.000000pt" viewBox="0 0 824.000000 292.000000"
 preserveAspectRatio="xMidYMid meet">

<g transform="translate(0.000000,292.000000) scale(0.100000,-0.100000)"
fill="#000000" stroke="none">
<path d="M5208 2798 c-45 -47 -66 -76 -60 -83 4 -4 -1 -11 -11 -16 -9 -6 -17
-15 -17 -22 0 -7 -12 -23 -25 -36 -14 -13 -25 -29 -25 -36 0 -7 -17 -28 -38
-47 l-38 -34 -87 7 c-47 5 -96 13 -107 19 -12 6 -33 9 -48 6 -42 -9 -107 -16
-232 -26 -63 -5 -126 -11 -140 -14 -14 -2 -83 -10 -155 -16 -71 -6 -161 -16
-200 -21 -103 -15 -272 -31 -335 -33 -53 -1 -55 0 -52 23 1 14 4 27 6 29 7 6
125 30 206 42 41 7 91 15 110 20 19 5 87 16 150 25 63 9 129 21 147 26 17 6
70 12 118 14 47 2 90 7 95 10 13 8 13 52 0 60 -6 4 -17 2 -25 -5 -9 -7 -15 -8
-20 0 -9 15 -23 12 -42 -10 -12 -14 -30 -20 -59 -20 -22 0 -54 -4 -70 -10 -16
-5 -65 -14 -109 -20 -44 -5 -102 -14 -130 -20 -27 -6 -81 -15 -120 -20 -108
-14 -137 -19 -143 -25 -3 -2 -10 -1 -16 4 -6 4 -30 11 -53 15 -34 5 -43 3 -43
-9 0 -18 -31 -35 -65 -35 -14 0 -58 -19 -98 -41 -221 -127 -297 -156 -322
-123 -10 15 -14 14 -38 -8 -15 -14 -51 -33 -81 -42 -133 -42 -326 -206 -326
-277 0 -9 -7 -20 -16 -23 -9 -3 -176 -6 -372 -6 -337 0 -359 -1 -389 -20 -19
-11 -35 -31 -39 -47 -3 -15 -8 -35 -11 -43 -6 -19 -24 -132 -29 -185 -2 -22
-8 -60 -13 -85 -5 -25 -12 -80 -16 -123 -9 -92 -22 -110 -71 -101 -40 7 -64
-8 -64 -41 0 -34 -26 -52 -52 -36 -16 10 -24 9 -45 -4 -21 -14 -27 -15 -34 -4
-5 8 -9 19 -9 24 0 6 -5 2 -11 -7 -11 -20 -39 -24 -56 -7 -8 8 -17 7 -32 -3
-16 -10 -25 -10 -39 -2 -12 8 -24 8 -39 1 -31 -14 -53 7 -53 49 l0 34 -82 -6
c-46 -4 -86 -12 -90 -18 -10 -15 -10 -538 0 -553 8 -12 122 -21 139 -10 6 4
12 5 14 2 3 -2 358 -6 789 -8 l785 -4 48 51 c26 28 50 63 54 78 3 15 9 25 14
22 11 -7 53 82 44 96 -3 5 -1 10 4 10 7 0 11 52 12 148 2 199 1 208 -6 277 -7
69 -21 103 -53 128 -12 10 -20 22 -18 26 3 4 -3 25 -13 47 -10 22 -21 60 -25
85 -6 38 -3 50 14 72 12 15 28 27 36 27 8 0 14 6 14 14 0 33 216 166 270 166
10 0 21 4 24 9 3 5 20 11 38 14 18 3 51 10 73 17 36 10 99 24 235 51 25 5 104
18 175 29 72 11 141 23 155 26 25 6 58 12 319 53 74 12 138 24 142 27 5 3 41
9 81 14 120 16 216 36 232 49 9 7 21 11 28 9 7 -3 28 1 46 9 19 8 43 11 54 7
16 -5 18 -11 12 -32 -4 -15 -8 -38 -8 -52 0 -14 -6 -31 -13 -38 -7 -7 -15 -29
-18 -50 -4 -20 -10 -47 -16 -60 -5 -13 -9 -34 -9 -47 0 -13 -4 -27 -10 -30 -5
-3 -10 -15 -10 -27 0 -11 -6 -34 -14 -51 -7 -18 -19 -57 -25 -87 -16 -75 -25
-110 -56 -215 -15 -49 -31 -112 -36 -140 -5 -27 -14 -59 -18 -70 -5 -11 -14
-40 -21 -65 -7 -25 -16 -54 -20 -65 -4 -11 -15 -49 -24 -85 -9 -36 -25 -94
-36 -130 -10 -36 -25 -90 -34 -120 -8 -30 -20 -75 -27 -100 -6 -25 -13 -52
-14 -60 -6 -45 -19 -71 -39 -75 -11 -3 -709 -4 -1549 -3 l-1528 3 -6 -22 c-4
-19 -12 -23 -44 -23 -32 0 -39 3 -39 20 0 19 -7 20 -96 20 -87 0 -96 -2 -101
-20 -8 -29 -82 -29 -90 0 -5 18 -14 20 -98 20 -84 0 -93 -2 -98 -20 -8 -29
-82 -29 -90 0 -5 18 -14 20 -97 20 -83 0 -92 -2 -97 -20 -8 -29 -73 -29 -80 0
-7 25 -11 25 -103 -8 -67 -24 -75 -30 -76 -53 -2 -41 -13 -51 -53 -47 -35 3
-38 1 -84 -71 -36 -53 -46 -76 -38 -84 17 -17 13 -45 -10 -61 -18 -12 -21 -27
-24 -96 -3 -69 -1 -84 15 -100 25 -25 35 -66 22 -83 -13 -16 22 -82 38 -72 6
4 10 84 10 203 0 194 0 196 26 233 14 21 42 46 62 56 35 17 124 18 2101 18
1393 0 2065 -3 2068 -10 2 -6 -32 -71 -76 -145 -69 -118 -84 -138 -124 -160
-25 -14 -54 -33 -64 -43 -37 -33 -37 -22 -1 178 31 171 34 159 -39 163 l-61 3
-7 -43 c-3 -24 -12 -77 -20 -118 -8 -41 -19 -104 -25 -140 -6 -36 -16 -98 -24
-138 -7 -40 -10 -74 -8 -77 3 -3 31 -5 63 -5 55 0 59 2 65 26 5 18 11 23 23
18 24 -10 148 -23 183 -19 16 2 38 11 47 19 12 11 38 16 82 16 67 0 208 23
237 39 63 34 131 157 134 243 2 43 6 52 27 59 13 5 33 7 43 3 25 -7 23 -38
-16 -248 -14 -76 -23 -142 -20 -147 3 -5 29 -9 59 -9 44 0 55 3 60 20 9 28 25
115 34 185 7 50 21 123 36 181 4 14 53 24 121 24 29 0 55 3 57 8 3 4 8 28 12
55 l7 47 -220 0 c-138 0 -223 4 -227 10 -4 7 517 9 1597 8 l1603 -3 37 -23
c20 -13 47 -40 60 -60 21 -35 23 -50 28 -237 l5 -200 24 34 24 34 -21 18 c-36
28 -23 79 19 79 29 0 36 46 23 143 -6 40 -10 46 -35 51 -21 4 -29 11 -29 26 0
11 7 23 15 26 23 9 18 35 -21 100 -46 77 -45 76 -81 62 -43 -16 -64 1 -56 45
l5 32 -84 28 -83 27 -21 -26 c-17 -21 -27 -25 -48 -20 -17 4 -26 13 -26 26 0
19 -7 20 -93 20 -86 0 -93 -1 -102 -22 -8 -18 -18 -23 -45 -23 -27 0 -37 5
-45 23 -9 20 -16 22 -101 22 -81 0 -92 -2 -97 -19 -3 -11 -16 -20 -35 -23 -36
-5 -46 -1 -55 25 -5 14 -20 17 -96 17 -80 0 -89 -2 -94 -20 -5 -20 -47 -36
-72 -26 -8 3 -15 15 -15 26 0 19 -6 20 -95 20 -93 0 -96 -1 -105 -25 -13 -35
-57 -35 -70 0 l-10 25 -842 2 c-464 1 -851 2 -860 2 -17 2 -26 20 -10 22 11 0
82 72 82 83 0 14 -46 21 -122 18 -68 -2 -98 -17 -34 -17 18 0 38 -6 44 -12 13
-17 3 -68 -13 -68 -7 0 -16 -7 -19 -16 -5 -13 -22 -15 -111 -12 -58 1 -105 5
-105 6 0 2 9 11 20 20 11 10 22 27 25 40 6 36 14 42 51 42 19 0 34 5 34 10 0
6 -9 10 -19 10 -29 0 -34 16 -16 50 8 16 15 31 14 32 -1 2 10 29 25 61 14 32
26 60 26 63 0 3 11 29 24 57 13 29 35 81 49 117 14 36 37 88 51 117 14 28 28
63 32 78 4 16 24 62 44 104 20 42 41 87 45 101 7 23 50 126 97 230 11 25 22
53 23 62 7 32 38 89 54 97 9 5 37 12 63 15 26 4 50 10 52 15 3 4 10 74 17 156
12 152 14 163 75 291 19 39 34 74 34 77 0 12 -73 127 -81 127 -4 0 -14 12 -21
27 -18 36 -33 39 -60 11z m-1073 -2615 c8 -23 -45 -69 -57 -50 -10 15 -10 51
-1 60 13 14 51 7 58 -10z"/>
<path d="M4910 2759 c-58 -10 -136 -23 -175 -28 -152 -21 -185 -29 -185 -42 0
-7 13 -9 33 -6 17 2 99 14 180 26 81 12 159 26 173 31 14 6 45 10 69 10 35 0
43 3 39 15 -7 17 0 18 -134 -6z"/>
<path d="M5058 2773 c7 -3 16 -2 19 1 4 3 -2 6 -13 5 -11 0 -14 -3 -6 -6z"/>
<path d="M5133 1956 c-13 -41 -23 -84 -23 -95 0 -12 -4 -29 -10 -39 -10 -16
-37 -109 -65 -222 -8 -30 -19 -73 -25 -95 -6 -22 -14 -51 -17 -65 -3 -14 -9
-29 -13 -35 -4 -5 -11 -32 -15 -60 -4 -27 -10 -54 -15 -60 -4 -5 -10 -21 -12
-35 -3 -14 -8 -32 -12 -40 -5 -12 1 -16 26 -15 32 0 33 2 41 50 5 28 15 66 22
85 29 81 52 159 96 335 11 44 24 89 29 100 5 11 12 40 15 65 8 55 26 110 37
110 4 0 8 20 8 45 0 40 -2 45 -22 45 -20 0 -26 -11 -45 -74z m-6 -168 c-3 -8
-6 -5 -6 6 -1 11 2 17 5 13 3 -3 4 -12 1 -19z"/>
<path d="M1077 1530 c-15 -12 -27 -25 -27 -28 0 -4 140 -8 310 -8 171 -1 310
2 310 6 0 4 -9 15 -21 26 -19 17 -42 19 -283 22 -254 3 -263 2 -289 -18z"/>
<path d="M946 1405 c-38 -19 -53 -66 -76 -240 -25 -189 -25 -214 0 -260 13
-24 35 -49 49 -57 31 -18 122 -30 140 -19 10 6 13 73 12 291 0 155 -2 285 -5
288 -10 10 -99 7 -120 -3z"/>
<path d="M4916 1084 c-4 -9 -4 -19 -1 -22 2 -3 7 3 11 12 4 9 4 19 1 22 -2 3
-7 -3 -11 -12z"/>
<path d="M265 568 c-2 -7 -6 -29 -8 -48 -2 -19 -18 -111 -35 -205 -17 -93 -33
-189 -37 -212 l-7 -43 60 0 c69 0 64 -6 83 105 6 39 17 73 23 77 18 12 111 9
124 -4 6 -6 8 -18 3 -27 -5 -9 -11 -47 -14 -84 l-6 -68 62 3 61 3 23 130 c12
72 28 168 34 215 6 47 15 93 20 102 5 9 9 28 9 43 0 26 -1 26 -62 23 -62 -3
-63 -4 -66 -33 -1 -16 -10 -65 -19 -107 l-17 -78 -68 0 -68 0 0 33 c0 18 7 59
15 90 25 96 24 97 -45 97 -40 0 -62 -4 -65 -12z"/>
<path d="M832 563 c-5 -10 -38 -97 -72 -193 -34 -96 -70 -199 -81 -228 -30
-82 -29 -83 43 -80 l63 3 15 52 14 51 54 7 c30 4 58 3 63 -2 4 -4 9 -30 11
-58 l3 -50 60 0 60 0 0 255 0 255 -112 3 c-99 2 -113 1 -121 -15z m116 -192
c2 -53 -1 -88 -9 -97 -13 -16 -75 -19 -84 -5 -7 12 44 174 59 183 24 16 31 -2
34 -81z"/>
<path d="M1229 578 c-4 -15 -52 -287 -59 -333 -4 -33 -13 -81 -20 -107 -18
-70 -11 -80 57 -76 l57 3 12 70 c20 121 33 188 37 192 5 5 16 -24 59 -157 l34
-105 62 -3 c45 -2 63 1 66 10 6 25 73 398 82 461 l6 48 -63 -3 -63 -3 -18
-110 c-10 -60 -21 -117 -24 -125 -7 -18 -23 17 -66 148 l-31 92 -63 0 c-35 0
-64 -1 -65 -2z"/>
<path d="M1735 568 c-8 -27 -17 -76 -25 -140 -5 -38 -11 -72 -14 -76 -5 -9
-46 -254 -46 -277 0 -22 235 -21 288 0 87 37 120 97 144 260 24 162 10 200
-80 232 -50 17 -261 18 -267 1z m182 -108 c36 0 57 -51 44 -108 -6 -26 -15
-69 -21 -97 -16 -69 -33 -85 -91 -85 -26 0 -50 4 -54 9 -3 5 -1 29 4 53 5 24
17 83 26 133 19 105 21 108 49 101 11 -3 31 -6 43 -6z"/>
<path d="M2267 573 c-3 -5 -26 -69 -51 -143 -25 -74 -49 -142 -52 -150 -27
-65 -72 -205 -68 -212 8 -13 112 -9 121 5 4 6 15 32 23 57 l15 45 60 0 60 0 0
-55 0 -55 63 -3 62 -3 0 261 0 260 -114 0 c-63 0 -117 -3 -119 -7z m111 -125
c14 -14 4 -170 -12 -180 -19 -13 -66 -9 -72 6 -6 15 33 154 49 174 12 15 20
15 35 0z"/>
<path d="M2586 543 c4 -21 10 -42 14 -48 4 -5 24 -62 45 -125 36 -112 37 -117
25 -180 -6 -36 -12 -78 -13 -95 -2 -29 -1 -30 50 -33 65 -4 78 13 87 113 7 71
21 103 85 190 79 108 141 199 141 206 0 5 -26 9 -57 9 l-58 0 -30 -48 c-49
-79 -89 -131 -102 -132 -6 0 -24 39 -40 88 l-28 87 -63 3 -63 3 7 -38z"/>
<path d="M3110 577 c0 -5 -68 -201 -100 -287 -58 -159 -78 -219 -72 -224 11
-12 110 -6 120 6 5 7 17 33 25 58 l15 45 58 0 59 0 3 -58 3 -58 62 3 62 3 0
63 c-1 34 -2 150 -3 257 l-2 195 -115 0 c-63 0 -115 -1 -115 -3z m118 -206 c2
-53 -1 -88 -9 -97 -15 -18 -78 -18 -85 -1 -6 17 44 169 60 179 24 16 31 -1 34
-81z"/>
<path d="M3505 568 c-2 -7 -6 -29 -8 -48 -3 -19 -21 -127 -41 -240 -20 -113
-36 -208 -36 -212 0 -5 27 -8 59 -8 69 0 63 -10 87 140 9 58 20 109 24 113 8
9 25 -31 68 -163 l27 -85 65 0 64 0 24 135 c13 74 27 167 32 206 5 40 14 84
20 99 5 14 10 37 10 51 0 23 -3 24 -60 24 -40 0 -62 -4 -64 -12 -2 -7 -11 -56
-21 -108 -24 -133 -25 -137 -37 -117 -5 9 -23 61 -41 114 -18 54 -36 104 -40
111 -5 7 -31 12 -68 12 -39 0 -61 -4 -64 -12z"/>
<path d="M5240 523 c-6 -32 -15 -85 -19 -118 -4 -33 -13 -83 -19 -110 -20 -85
-40 -219 -36 -227 8 -13 111 -9 122 4 9 13 17 49 28 135 4 29 11 43 25 46 25
7 32 -5 59 -93 13 -41 28 -81 33 -87 11 -15 137 -18 137 -3 0 5 -4 19 -9 32
-5 13 -19 54 -30 92 l-21 68 26 30 c13 17 31 46 39 65 18 43 19 152 2 174 -27
35 -85 49 -207 49 l-118 0 -12 -57z m208 -69 c18 -5 15 -74 -5 -96 -11 -12
-30 -18 -60 -18 l-44 0 7 53 c4 28 11 57 16 64 9 11 45 10 86 -3z"/>
<path d="M5777 573 c-3 -5 -28 -73 -55 -153 -28 -80 -66 -190 -86 -244 -20
-55 -36 -103 -36 -108 0 -13 118 -9 127 5 4 6 15 32 24 57 l15 45 60 0 59 0 0
-55 0 -55 63 -3 62 -3 0 261 0 260 -114 0 c-63 0 -117 -3 -119 -7z m117 -212
c-3 -47 -12 -89 -18 -93 -6 -4 -26 -8 -43 -8 -40 0 -41 10 -12 106 21 72 40
97 66 87 12 -5 13 -20 7 -92z"/>
<path d="M6239 555 c-69 -35 -92 -72 -116 -190 -42 -207 -38 -248 25 -287 31
-19 50 -23 117 -23 89 1 146 23 184 71 22 28 43 92 35 106 -3 4 -27 8 -53 8
-44 0 -50 -3 -80 -40 -32 -40 -63 -50 -105 -34 -22 8 -21 105 2 204 14 60 23
77 42 87 37 19 67 16 91 -8 20 -20 22 -37 7 -99 -3 -17 47 -26 87 -16 25 6 55
68 55 112 0 45 -30 94 -71 114 -55 29 -158 26 -220 -5z"/>
<path d="M6596 549 c-15 -76 -12 -79 57 -80 104 -2 102 -1 100 -29 -6 -72 -24
-188 -32 -210 -5 -14 -12 -47 -16 -75 -4 -27 -9 -60 -12 -73 -5 -22 -4 -23 57
-20 l63 3 13 55 c6 30 17 89 24 130 23 151 32 195 41 206 5 6 43 11 90 11 44
1 82 2 84 4 1 2 5 27 7 54 l3 50 -236 3 -236 2 -7 -31z"/>
<path d="M7233 566 c-37 -14 -89 -59 -108 -96 -12 -24 -21 -59 -45 -180 -5
-25 -9 -71 -9 -104 -1 -54 2 -61 34 -92 27 -25 47 -34 90 -39 165 -21 263 56
285 226 5 35 14 87 20 115 11 45 10 55 -8 97 -27 61 -77 87 -164 86 -35 -1
-78 -7 -95 -13z m110 -105 c36 -14 41 -43 23 -119 -8 -37 -17 -83 -21 -103 -8
-52 -37 -79 -85 -79 -33 0 -42 4 -54 29 -9 16 -13 31 -10 33 2 3 8 39 13 81
10 91 36 149 71 158 36 10 36 10 63 0z"/>
<path d="M7625 558 c-16 -72 -68 -392 -72 -441 l-5 -58 64 3 63 3 6 55 c11 92
21 131 36 137 23 9 38 -16 67 -109 l27 -88 64 0 c35 0 66 4 69 9 3 4 -1 26 -8
47 -8 22 -21 62 -31 91 l-17 52 31 38 c28 35 61 131 61 176 0 35 -33 75 -75
91 -28 11 -75 16 -158 16 -113 0 -117 -1 -122 -22z m193 -104 c15 -10 22 -25
22 -48 0 -45 -27 -68 -77 -64 l-38 3 3 50 c1 28 4 56 7 63 6 17 56 15 83 -4z"/>
</g>
</svg>
